<svg width="20" height="21" viewBox="0 0 20 21" fill="none" xmlns="http://www.w3.org/2000/svg">
<g clip-path="url(#clip0_1411_6750)">
<path d="M19.1379 3.14634C18.85 2.85792 18.3828 2.85743 18.0949 3.14511L9.24591 11.9708L6.05321 8.50318C5.77734 8.20372 5.31091 8.1843 5.01095 8.46014C4.71122 8.73601 4.69203 9.20267 4.96791 9.5024L8.68062 13.5345C8.81659 13.6823 9.00688 13.7681 9.20753 13.7723C9.21292 13.7725 9.21812 13.7725 9.22328 13.7725C9.41827 13.7725 9.60584 13.695 9.74403 13.5573L19.1364 4.18956C19.4251 3.90191 19.4256 3.43475 19.1379 3.14634Z" fill="#066453"/>
<path d="M18.9599 9.52081C18.5525 9.52081 18.2223 9.851 18.2223 10.2584C18.2223 14.8411 14.4944 18.569 9.91177 18.569C5.32942 18.569 1.60122 14.8411 1.60122 10.2584C1.60122 5.6761 5.32942 1.9479 9.91177 1.9479C10.3192 1.9479 10.6494 1.61771 10.6494 1.2103C10.6494 0.80285 10.3192 0.472656 9.91177 0.472656C4.51582 0.472656 0.125977 4.8625 0.125977 10.2584C0.125977 15.6542 4.51582 20.0442 9.91177 20.0442C15.3075 20.0442 19.6976 15.6542 19.6976 10.2584C19.6976 9.85104 19.3674 9.52081 18.9599 9.52081Z" fill="#066453"/>
</g>
<defs>
<clipPath id="clip0_1411_6750">
<rect width="19.5716" height="19.5716" fill="white" transform="translate(0.125977 0.472656)"/>
</clipPath>
</defs>
</svg>
