<svg width="61" height="61" viewBox="0 0 61 61" fill="none" xmlns="http://www.w3.org/2000/svg">
<path d="M12.1659 38.8531C13.1328 38.8531 13.9167 38.0692 13.9167 37.1023C13.9167 36.1354 13.1328 35.3516 12.1659 35.3516C11.199 35.3516 10.4152 36.1354 10.4152 37.1023C10.4152 38.0692 11.199 38.8531 12.1659 38.8531Z" fill="#066453"/>
<path d="M12.1655 46.0308C13.1325 46.0308 13.9163 45.247 13.9163 44.28C13.9163 43.3131 13.1325 42.5293 12.1655 42.5293C11.1986 42.5293 10.4148 43.3131 10.4148 44.28C10.4148 45.247 11.1986 46.0308 12.1655 46.0308Z" fill="#066453"/>
<path d="M12.1655 53.2076C13.1325 53.2076 13.9163 52.4237 13.9163 51.4568C13.9163 50.4899 13.1325 49.7061 12.1655 49.7061C11.1986 49.7061 10.4148 50.4899 10.4148 51.4568C10.4148 52.4237 11.1986 53.2076 12.1655 53.2076Z" fill="#066453"/>
<path d="M48.8928 38.8531C49.8598 38.8531 50.6436 38.0692 50.6436 37.1023C50.6436 36.1354 49.8598 35.3516 48.8928 35.3516C47.9259 35.3516 47.1421 36.1354 47.1421 37.1023C47.1421 38.0692 47.9259 38.8531 48.8928 38.8531Z" fill="#066453"/>
<path d="M48.8928 46.0308C49.8598 46.0308 50.6436 45.247 50.6436 44.28C50.6436 43.3131 49.8598 42.5293 48.8928 42.5293C47.9259 42.5293 47.1421 43.3131 47.1421 44.28C47.1421 45.247 47.9259 46.0308 48.8928 46.0308Z" fill="#066453"/>
<path d="M48.8928 53.2076C49.8598 53.2076 50.6436 52.4237 50.6436 51.4568C50.6436 50.4899 49.8598 49.7061 48.8928 49.7061C47.9259 49.7061 47.1421 50.4899 47.1421 51.4568C47.1421 52.4237 47.9259 53.2076 48.8928 53.2076Z" fill="#066453"/>
<path d="M35.5286 35.5854H25.2854C24.3185 35.5854 23.5347 36.3693 23.5347 37.3362C23.5347 38.3031 24.3185 39.0869 25.2854 39.0869H35.5286C36.4955 39.0869 37.2794 38.3031 37.2794 37.3362C37.2794 36.3693 36.4956 35.5854 35.5286 35.5854Z" fill="#066453"/>
<path d="M58.5948 56.5592H56.9474V31.3518H58.5364C59.204 31.3518 59.8135 30.9722 60.1079 30.3729C60.4021 29.7737 60.3301 29.0593 59.922 28.5309C58.6493 26.8831 58.6493 24.5816 59.922 22.9338C60.3301 22.4054 60.4021 21.691 60.1079 21.0917C59.8135 20.4925 59.204 20.1128 58.5364 20.1128H54.9273L32.1175 13.1951V10.0096H40.4967C41.1378 10.0096 41.7276 9.65921 42.0342 9.09617C42.3408 8.53313 42.3151 7.84754 41.9673 7.30901L40.575 5.15337L41.972 2.96668C42.3163 2.4278 42.3393 1.74395 42.0321 1.18301C41.7249 0.62207 41.1362 0.273438 40.4967 0.273438H30.3667C29.3998 0.273438 28.616 1.05731 28.616 2.02419V13.1964L5.88653 20.1128H2.27812C1.62334 20.1128 1.02318 20.4783 0.722635 21.0601C0.42209 21.6419 0.471344 22.3428 0.850324 22.8768L0.99657 23.0829C2.12114 24.6677 2.12114 26.7972 0.99657 28.382L0.850324 28.5881C0.471344 29.1221 0.42209 29.823 0.722635 30.4048C1.02318 30.9866 1.62322 31.3521 2.27812 31.3521H3.86628V56.5593H2.33648C1.3696 56.5593 0.585727 57.3431 0.585727 58.31C0.585727 59.2769 1.3696 60.0608 2.33648 60.0608H58.5948C59.5617 60.0608 60.3455 59.2769 60.3455 58.31C60.3455 57.3431 59.5617 56.5592 58.5948 56.5592ZM32.1175 3.77482H37.3007L37.0189 4.2159C36.65 4.79329 36.6518 5.53281 37.0235 6.10834L37.2817 6.5081H32.1173V3.77482H32.1175ZM30.3675 16.3234L42.8622 20.1127H17.9145L30.3675 16.3234ZM6.13502 23.6142C6.13876 23.6142 6.14249 23.6147 6.14635 23.6147C6.15043 23.6147 6.15463 23.6142 6.15883 23.6142H54.6558C54.66 23.6142 54.6642 23.6147 54.6683 23.6147C54.672 23.6147 54.6758 23.6142 54.6796 23.6142H55.7481C55.3725 24.9999 55.3725 26.4647 55.7481 27.8503H5.05925C5.43449 26.4647 5.43449 24.9999 5.05925 23.6142H6.13502ZM7.36779 56.5592V31.3518H16.8175V56.559H7.36779V56.5592ZM27.036 56.5592V49.648C27.036 47.7893 28.5481 46.2772 30.4069 46.2772C32.2656 46.2772 33.7776 47.7894 33.7776 49.648V56.5592H27.036ZM37.2791 56.5592V49.648C37.2791 45.8586 34.1962 42.7757 30.4069 42.7757C26.6175 42.7757 23.5345 45.8587 23.5345 49.648V56.5592H20.3191V31.3518H40.7664V56.559H37.2791V56.5592ZM44.2679 56.5592V31.3518H53.4459V56.559H44.2679V56.5592Z" fill="#066453"/>
</svg>
