<svg width="40" height="56" viewBox="0 0 40 56" fill="none" xmlns="http://www.w3.org/2000/svg">
<path d="M20 0C8.97184 0 0 8.302 0 18.5068C0 28.711 8.97184 37.0136 20 37.0136C31.0276 37.0136 40 28.711 40 18.5068C40 8.302 31.0276 0 20 0ZM20 33.3729C11.1417 33.3729 3.93442 26.7038 3.93442 18.5068C3.93442 10.3098 11.1417 3.64068 20 3.64068C28.859 3.64068 36.0656 10.3098 36.0656 18.5068C36.0656 26.7038 28.859 33.3729 20 33.3729Z" fill="#066453"/>
<path d="M33.9635 52.8973L33.0688 33.2475C33.0196 32.1676 32.108 31.3298 31.0277 31.3718C29.9373 31.4143 29.0899 32.3364 29.1396 33.4265L29.4342 39.8946C29.6186 43.943 24.9494 46.3244 21.7807 43.7979C20.765 42.9199 19.2325 42.9187 18.2161 43.7979C15.0476 46.3241 10.3787 43.943 10.5632 39.8948L10.8578 33.4269C10.9075 32.3365 10.0599 31.4143 8.9693 31.3718C7.88887 31.3298 6.97708 32.1677 6.9279 33.2479L6.03315 52.8973C6.03244 52.9228 6.03186 52.9483 6.03186 52.9738C6.03186 53.9379 6.63707 54.8184 7.57413 55.2164C8.51576 55.6182 9.59769 55.4744 10.3977 54.8378L10.6478 54.6384C16.1189 50.2766 23.8789 50.2768 29.3498 54.6389L29.603 54.8407C30.1013 55.2357 30.7105 55.4403 31.3268 55.4403C31.698 55.4403 32.0711 55.3668 32.4239 55.2163C33.3602 54.8183 33.9655 53.9379 33.9655 52.9736C33.9655 52.9482 33.965 52.9228 33.9635 52.8973Z" fill="#066453"/>
<path d="M28.7341 12.9753C27.9656 12.2641 26.721 12.2641 25.9525 12.9753L21.3933 17.1941C19.1345 19.2843 15.6445 19.2737 13.3984 17.17C12.6345 16.4546 11.3892 16.4474 10.6161 17.1542C9.84296 17.8611 9.83512 19.0134 10.599 19.7288L15.976 24.7651C16.3445 25.1104 16.8455 25.305 17.3694 25.3063C17.3714 25.3063 17.3734 25.3063 17.3753 25.3063C17.8966 25.3063 18.3975 25.1146 18.7667 24.7724L28.7339 15.5494C29.5027 14.8387 29.5027 13.6858 28.7341 12.9753Z" fill="#066453"/>
</svg>
