<svg width="22" height="23" viewBox="0 0 22 23" fill="none" xmlns="http://www.w3.org/2000/svg">
<g clip-path="url(#clip0_1411_6773)">
<path d="M19.0012 4.80891C18.5468 4.35432 18.0074 3.9937 17.4136 3.74767C16.8198 3.50163 16.1834 3.375 15.5406 3.375C14.8979 3.375 14.2614 3.50163 13.6677 3.74767C13.0739 3.9937 12.5344 4.35432 12.08 4.80891L11.137 5.7519L10.194 4.80891C9.2762 3.8911 8.03138 3.37548 6.7334 3.37548C5.43542 3.37548 4.1906 3.8911 3.27279 4.80891C2.35498 5.72672 1.83936 6.97154 1.83936 8.26952C1.83936 9.5675 2.35498 10.8123 3.27279 11.7301L4.21578 12.6731L11.137 19.5944L18.0582 12.6731L19.0012 11.7301C19.4558 11.2758 19.8164 10.7363 20.0625 10.1425C20.3085 9.5487 20.4351 8.91226 20.4351 8.26952C20.4351 7.62678 20.3085 6.99034 20.0625 6.39656C19.8164 5.80278 19.4558 5.26329 19.0012 4.80891V4.80891Z" stroke="#066453" stroke-width="1.77924" stroke-linecap="round" stroke-linejoin="round"/>
</g>
<defs>
<clipPath id="clip0_1411_6773">
<rect width="21.3508" height="21.3508" fill="white" transform="translate(0.461426 0.707031)"/>
</clipPath>
</defs>
</svg>
