<svg width="20" height="21" viewBox="0 0 20 21" fill="none" xmlns="http://www.w3.org/2000/svg">
<path d="M18.9599 9.52081C18.5525 9.52081 18.2223 9.851 18.2223 10.2584C18.2223 14.8411 14.4944 18.569 9.91177 18.569C5.32942 18.569 1.60122 14.8411 1.60122 10.2584C1.60122 5.6761 5.32942 1.9479 9.91177 1.9479C10.3192 1.9479 10.6494 1.61771 10.6494 1.2103C10.6494 0.80285 10.3192 0.472656 9.91177 0.472656C4.51582 0.472656 0.125977 4.8625 0.125977 10.2584C0.125977 15.6542 4.51582 20.0442 9.91177 20.0442C15.3075 20.0442 19.6976 15.6542 19.6976 10.2584C19.6976 9.85104 19.3674 9.52081 18.9599 9.52081Z" fill="#066453"/>
</svg>
